<svg xmlns="http://www.w3.org/2000/svg" xmlns:xlink="http://www.w3.org/1999/xlink" version="1.1" width="256" height="256" viewBox="0 0 256 256" xml:space="preserve">
<desc>Created with Fabric.js 1.7.22</desc>
<defs>
</defs>
<g transform="translate(128 128) scale(0.72 0.72)" style="">
	<g style="stroke: none; stroke-width: 0; stroke-dasharray: none; stroke-linecap: butt; stroke-linejoin: miter; stroke-miterlimit: 10; fill: none; fill-rule: nonzero; opacity: 1;" transform="translate(-175.05 -175.05000000000004) scale(3.89 3.89)" >
	<path d="M 68.929 30.449 h -0.581 c -1.475 0 -2.856 0.401 -4.044 1.1 c -0.448 -3.985 -3.84 -7.094 -7.943 -7.094 h -0.581 c -1.612 0 -3.115 0.48 -4.373 1.305 c -1.032 -3.22 -4.055 -5.558 -7.614 -5.558 h -0.581 c -1.454 0 -2.818 0.39 -3.994 1.071 V 7.994 C 39.218 3.586 35.632 0 31.225 0 h -0.582 c -4.407 0 -7.993 3.586 -7.993 7.994 v 31.859 l -4.147 3.148 c -2.983 2.265 -4.874 5.56 -5.325 9.277 c -0.451 3.719 0.598 7.37 2.954 10.282 l 12.333 15.247 v 6.209 c 0 3.299 2.685 5.983 5.984 5.983 h 30.455 c 3.299 0 5.983 -2.685 5.983 -5.983 v -5.901 c 3.897 -4.821 6.036 -10.835 6.036 -17.018 V 38.443 C 76.923 34.035 73.337 30.449 68.929 30.449 z M 72.923 61.098 c 0 5.45 -1.952 10.748 -5.499 14.928 c -0.336 0.361 -0.537 0.844 -0.537 1.364 v 6.627 c 0 1.094 -0.89 1.983 -1.983 1.983 H 34.449 c -1.094 0 -1.984 -0.89 -1.984 -1.983 V 77.1 c 0 -0.458 -0.157 -0.902 -0.445 -1.258 L 19.242 60.045 c -1.669 -2.063 -2.412 -4.65 -2.093 -7.285 c 0.319 -2.634 1.659 -4.969 3.773 -6.573 l 1.728 -1.312 v 8.36 c 0 1.104 0.896 2 2 2 s 2 -0.896 2 -2 v -12.37 c 0 -0.014 0 -0.029 0 -0.043 V 7.994 C 26.65 5.792 28.441 4 30.643 4 h 0.582 c 2.202 0 3.993 1.792 3.993 3.994 v 20.203 c 0 0 0 0 0 0.001 s 0 0 0 0.001 l 0.013 16.804 c 0.001 1.104 0.896 1.999 2 1.999 c 0 0 0.001 0 0.001 0 c 1.104 -0.001 2 -0.896 1.999 -2.001 l -0.013 -16.802 c 0 -2.202 1.792 -3.994 3.994 -3.994 h 0.581 c 2.202 0 3.994 1.792 3.994 3.994 v 4.253 c 0 0 0 0.001 0 0.001 c 0 0 0 0.001 0 0.001 l 0.013 12.551 c 0.001 1.104 0.896 1.998 2 1.998 c 0.001 0 0.001 0 0.002 0 c 1.104 -0.001 1.999 -0.897 1.998 -2.002 l -0.013 -12.549 c 0 -2.202 1.791 -3.994 3.993 -3.994 h 0.581 c 2.202 0 3.994 1.792 3.994 3.994 v 5.316 c -0.011 0.085 -0.026 0.169 -0.025 0.256 l 0.013 6.981 c 0.002 1.104 0.897 1.997 2 1.997 c 0.001 0 0.002 0 0.004 0 c 1.104 -0.002 1.998 -0.899 1.996 -2.003 l -0.011 -6.314 c 0.01 -0.08 0.024 -0.158 0.024 -0.24 c 0 -2.202 1.791 -3.994 3.993 -3.994 h 0.581 c 2.202 0 3.994 1.792 3.994 3.994 V 61.098 z" style="stroke: none; stroke-width: 1; stroke-dasharray: none; stroke-linecap: butt; stroke-linejoin: miter; stroke-miterlimit: 10; fill: rgb(0,0,0); fill-rule: nonzero; opacity: 1;" transform=" matrix(1 0 0 1 0 0) " stroke-linecap="round" />
</g>
</g>
</svg>